# xmcd
#
# Track frame offsets: 
#        150
#        31412
#        48791
#        69799
#        88516
#        111840
#        124257
#        149806
#        171937
#        194143
#        210796
#        231831
#        248830
#        267904
#        289774
#
# Disc length: 4015 seconds
#
# Revision: 3
# Processed by: cddbd v1.5.2PL0 Copyright (c) Steve Scherf et al.
# Submitted via: ExactAudioCopy v0.95b4
#
DISCID=dc0fad0f
DTITLE=Nina Simone - Misunderstood CD2
DYEAR=2000
DGENRE=Jazz
TTITLE0=The House Of The Rising Sun
TTITLE1=Don't Let Me Be Misunderstood
TTITLE2=Ain't Got No I Got Life
TTITLE3=No Oppurtunity Necessary, No Experience Needed
TTITLE4=Young, Gifted And Black
TTITLE5=Ain't No Use
TTITLE6=After You've Gone
TTITLE7=The Assignment Song
TTITLE8=Gin House Blues
TTITLE9=Do What You Gotta Do
TTITLE10=Mississippi Goddam
TTITLE11=See Line Woman
TTITLE12=The Other Woman
TTITLE13=Four Women
TTITLE14=I Sing Just To Know I'm Alive
EXTD=Volume 1 is 'My Baby Just Cares For Me' YEAR: 2000 ID3G: 8
EXTT0=
EXTT1=
EXTT2=
EXTT3=
EXTT4=
EXTT5=
EXTT6=
EXTT7=
EXTT8=
EXTT9=
EXTT10=
EXTT11=
EXTT12=
EXTT13=
EXTT14=
PLAYORDER=
